<?xml version="1.0" standalone="no"?>
<!DOCTYPE svg PUBLIC "-//W3C//DTD SVG 20010904//EN"
 "http://www.w3.org/TR/2001/REC-SVG-20010904/DTD/svg10.dtd">
<svg version="1.0" xmlns="http://www.w3.org/2000/svg"
 width="1080.000000pt" height="1080.000000pt" viewBox="0 0 1080.000000 1080.000000"
 preserveAspectRatio="xMidYMid meet">

<g transform="translate(0.000000,1080.000000) scale(0.100000,-0.100000)"
fill="#000000" stroke="none">
<path d="M4005 9823 c-37 -4 -76 -23 -47 -23 7 0 12 -5 12 -10 0 -6 -11 -3
-25 6 -14 9 -28 14 -32 10 -3 -3 -12 -1 -19 5 -9 7 -14 5 -19 -10 -5 -17 -12
-20 -33 -15 -21 4 -24 3 -12 -5 8 -6 10 -11 5 -11 -6 0 -15 -10 -20 -22 -6
-13 -24 -32 -42 -43 -61 -38 -63 -105 -4 -105 25 -1 25 -1 5 -13 -28 -17 -74
-54 -74 -60 0 -15 78 19 100 43 3 3 18 11 35 18 29 13 30 12 88 -50 56 -61 97
-132 97 -169 0 -9 7 -25 16 -33 14 -15 13 -17 -14 -27 -16 -5 -44 -28 -62 -50
-30 -38 -32 -45 -28 -100 3 -43 10 -65 26 -82 29 -31 28 -47 -3 -47 -27 0 -58
-26 -63 -52 -2 -12 9 -21 39 -29 l41 -13 -39 -15 c-27 -11 -38 -21 -35 -33 5
-27 37 -31 81 -9 23 10 41 15 41 10 0 -5 7 -9 14 -9 8 0 26 23 41 51 l25 51
-53 61 c-71 83 -70 95 9 103 27 2 63 7 81 9 20 4 33 1 36 -7 4 -9 6 -7 6 3 1
22 37 44 82 53 44 8 67 45 40 65 -9 6 -10 9 -3 6 6 -3 12 0 12 7 0 17 -52 165
-68 195 -7 12 -12 30 -12 40 1 13 5 11 16 -9 8 -16 22 -28 30 -28 23 0 10 32
-47 124 -28 43 -48 84 -45 90 3 7 5 7 5 -1 2 -24 19 -13 19 12 0 14 -4 25 -8
25 -4 0 -26 18 -47 40 -36 35 -83 63 -101 58 -4 -1 -25 -3 -47 -5z m-88 -119
c-3 -3 -12 -4 -19 -1 -8 3 -5 6 6 6 11 1 17 -2 13 -5z m13 -74 c0 -5 17 -26
38 -46 38 -37 31 -36 -27 3 -19 13 -42 23 -52 23 -19 0 -25 11 -12 23 10 11
53 8 53 -3z m307 -352 c-3 -8 -6 -5 -6 6 -1 11 2 17 5 13 3 -3 4 -12 1 -19z"/>
<path d="M3573 9328 c-19 -24 -24 -38 -15 -38 5 0 14 11 20 25 13 27 10 32 -5
13z"/>
<path d="M3736 9291 c-6 -9 40 -21 78 -21 21 1 21 1 2 15 -22 16 -72 20 -80 6z"/>
<path d="M3713 9245 c-34 -15 -44 -35 -18 -35 9 0 32 -8 53 -19 32 -16 47 -18
94 -12 11 2 -3 39 -21 55 -25 23 -72 28 -108 11z m37 -19 c0 -2 -7 -6 -15 -10
-8 -3 -15 -1 -15 4 0 6 7 10 15 10 8 0 15 -2 15 -4z"/>
<path d="M4320 9224 c0 -8 5 -12 10 -9 6 4 8 11 5 16 -9 14 -15 11 -15 -7z"/>
<path d="M4260 9151 c0 -16 -3 -37 -7 -46 -5 -14 -2 -16 17 -10 15 5 20 4 16
-4 -4 -6 -2 -11 3 -11 12 0 14 42 5 78 -9 33 -34 28 -34 -7z"/>
<path d="M4230 9058 c0 -8 10 -23 22 -34 l21 -19 -18 30 c-26 41 -25 40 -25
23z"/>
<path d="M4256 9056 c3 -9 11 -16 16 -16 13 0 5 23 -10 28 -7 2 -10 -2 -6 -12z"/>
<path d="M3780 9050 c0 -7 -3 -10 -7 -7 -7 8 -32 -23 -33 -40 0 -7 4 -13 9
-13 11 0 43 61 36 68 -3 3 -5 -1 -5 -8z"/>
<path d="M3725 8982 c-10 -10 -4 -37 12 -57 15 -20 15 -20 10 2 l-5 22 40 -20
c42 -21 59 -21 33 1 -8 7 -15 18 -15 24 0 12 -66 37 -75 28z"/>
<path d="M4140 8840 c-14 -3 -34 -20 -45 -38 -11 -17 -26 -31 -32 -32 -7 0
-13 -5 -13 -11 0 -5 -3 -8 -7 -6 -11 7 -53 -11 -53 -21 0 -5 21 -15 48 -22 26
-8 49 -16 52 -19 3 -3 14 -11 25 -17 12 -7 21 -24 23 -44 2 -18 10 -44 19 -56
8 -13 12 -24 8 -24 -3 0 0 -6 8 -14 8 -9 24 -12 36 -9 11 3 21 1 21 -3 0 -5 3
-45 6 -89 5 -62 2 -87 -10 -110 -9 -16 -16 -35 -16 -41 0 -15 -167 -67 -215
-67 -67 1 -260 109 -281 157 -12 27 -13 28 -14 8 0 -13 -4 -20 -10 -17 -21 13
-9 -13 13 -28 12 -8 35 -34 51 -59 32 -51 54 -67 113 -82 l43 -11 -15 -29
c-26 -50 -19 -70 50 -139 36 -36 70 -79 76 -96 l11 -31 94 0 c55 0 94 -4 94
-10 0 -5 -8 -9 -17 -8 -10 1 -29 0 -43 -1 l-25 -3 26 -11 c15 -7 28 -16 30
-22 2 -5 9 -9 16 -9 6 1 9 -5 6 -12 -6 -16 -30 -19 -35 -4 -2 6 -29 11 -60 12
-42 2 -59 7 -62 18 -3 13 -4 12 -5 -1 -1 -14 -14 -17 -70 -17 -73 0 -99 13
-88 43 4 8 -4 22 -17 32 -12 10 -25 25 -29 33 -3 10 -6 11 -6 2 -1 -10 -7 -9
-30 2 -36 19 -48 59 -26 93 15 22 15 27 2 41 -8 10 -27 45 -42 80 -20 44 -33
62 -46 62 -11 0 -19 6 -19 14 0 16 -27 29 -42 19 -6 -3 -8 -2 -5 3 8 13 -10
41 -19 31 -4 -4 -9 -47 -11 -95 -3 -57 -1 -82 5 -73 12 16 32 6 32 -16 0 -8 8
-27 18 -41 37 -54 37 -55 4 -50 -32 5 -32 2 -5 -62 3 -8 7 -19 7 -24 2 -16 66
-16 96 -1 36 19 40 19 40 -1 0 -12 7 -15 25 -12 14 3 25 1 25 -4 0 -5 6 -6 13
-3 6 4 3 -1 -7 -9 -11 -9 -14 -16 -8 -16 7 0 11 -3 11 -7 -5 -32 4 -55 26 -65
14 -6 25 -15 25 -20 0 -5 -6 -6 -12 -2 -8 4 -10 3 -5 -2 5 -5 13 -9 19 -9 6 0
16 -9 22 -20 13 -23 32 -45 40 -45 2 0 7 8 9 18 4 16 5 16 6 0 2 -26 21 -22
22 5 0 12 2 30 4 40 2 9 -1 15 -6 11 -17 -10 -31 7 -18 22 9 11 33 14 96 13
84 -3 119 -19 41 -19 -29 0 -38 -3 -29 -9 11 -7 10 -10 -5 -13 -16 -4 -15 -6
6 -12 27 -7 60 -55 60 -87 0 -35 -62 -57 -98 -35 -7 4 -19 2 -27 -4 -8 -6 -19
-9 -25 -5 -5 3 -10 2 -10 -3 0 -6 -22 -8 -50 -6 -51 3 -55 1 -50 -39 1 -10 -4
-24 -10 -32 -14 -17 0 -46 46 -96 39 -43 74 -68 147 -104 32 -15 56 -30 53
-32 -8 -8 -76 18 -76 29 0 6 -11 3 -24 -5 -22 -15 -24 -14 -45 14 -17 23 -27
28 -45 23 -19 -4 -29 2 -51 30 -32 42 -45 45 -45 11 0 -27 52 -139 70 -150 6
-4 23 -32 37 -63 14 -32 33 -65 42 -76 16 -18 15 -18 -15 -3 -27 14 -34 14
-43 3 -8 -10 -4 -21 19 -47 16 -19 30 -37 30 -40 0 -3 19 -16 43 -29 l42 -24
-33 -7 c-18 -4 -42 -4 -53 -2 -27 7 -24 -13 7 -34 14 -10 42 -32 64 -49 21
-17 52 -37 69 -44 17 -7 31 -16 31 -20 0 -5 3 -17 7 -27 7 -17 6 -17 -11 0 -9
9 -27 17 -39 17 -13 0 -32 7 -43 15 -14 9 -30 12 -50 6 l-29 -7 25 -16 c14 -8
50 -25 80 -37 45 -19 55 -27 55 -47 0 -29 -25 -41 -32 -15 -8 33 -73 35 -73 3
0 -15 2 -15 10 -2 10 16 13 8 10 -27 -1 -13 3 -23 8 -23 5 0 12 -10 14 -23 3
-17 0 -23 -14 -24 -10 -1 -18 2 -18 8 0 5 -9 9 -19 9 -17 0 -18 -4 -11 -27 17
-58 36 -90 97 -157 34 -38 70 -86 79 -105 9 -20 24 -53 35 -73 10 -21 16 -38
13 -38 -15 0 -69 54 -66 66 2 8 -13 22 -33 31 -19 9 -35 23 -35 30 0 17 -50
16 -72 -1 -10 -7 -18 -16 -18 -20 0 -8 -17 -30 -47 -61 -28 -28 -29 -40 -2
-59 17 -11 21 -26 23 -70 1 -56 1 -56 33 -56 17 0 34 -4 37 -9 8 -12 46 -1 46
13 0 7 -5 17 -11 23 -8 8 -7 13 2 18 10 7 56 -35 108 -101 34 -43 70 -150 75
-221 1 -16 4 -19 14 -11 6 6 12 18 12 27 0 23 -50 152 -72 183 -10 14 -18 29
-18 32 0 12 -68 112 -89 130 -27 24 -27 39 0 31 29 -9 67 -43 83 -75 7 -14 27
-50 43 -80 17 -30 39 -81 48 -112 10 -31 22 -55 27 -52 16 10 7 60 -21 111
-16 29 -25 55 -21 58 5 3 16 -8 25 -25 16 -32 35 -32 35 -1 0 9 14 39 31 67
51 80 48 50 81 629 6 110 10 225 8 255 -2 30 -3 71 -3 90 -1 68 24 446 33 520
8 59 38 346 42 408 1 6 3 10 6 8 2 -3 26 9 53 25 28 16 52 29 55 29 17 0 174
79 197 99 26 23 27 27 21 90 -8 81 -18 106 -82 206 -64 100 -78 114 -105 108
-16 -3 -18 -2 -9 5 11 7 10 11 -5 17 -10 5 -22 7 -26 6 -11 -2 -109 63 -127
84 -22 27 -72 49 -80 35 -7 -11 -33 11 -64 55 -12 16 -16 17 -30 6 -9 -8 -16
-9 -16 -3 0 6 -19 10 -42 11 -61 0 -79 5 -94 26 -13 18 -14 18 -14 -5 0 -28
-17 -16 -22 16 -2 16 -8 19 -28 14z m314 -599 c-4 -28 -11 -51 -16 -51 -10 0
-2 85 9 103 11 18 14 -3 7 -52z m-571 -381 c-3 -12 -8 -19 -11 -16 -5 6 5 36
12 36 2 0 2 -9 -1 -20z"/>
<path d="M3666 8695 c-33 -43 -79 -144 -72 -160 2 -6 -2 -12 -9 -12 -9 0 -11
13 -7 44 3 31 1 43 -8 43 -10 0 -9 4 2 18 9 9 13 23 10 31 -3 9 0 11 9 6 11
-6 12 -5 1 6 -10 11 -16 11 -30 1 -9 -7 -24 -15 -32 -19 -26 -11 -113 -77
-142 -107 -25 -26 -27 -34 -25 -95 2 -36 7 -75 11 -86 5 -11 -6 1 -24 28 -17
26 -36 44 -41 41 -6 -3 -4 -16 6 -30 14 -22 14 -26 0 -40 -13 -14 -13 -18 0
-44 12 -24 13 -28 2 -24 -22 8 -31 -80 -12 -116 8 -16 15 -36 15 -44 0 -8 5
-16 11 -18 5 -2 11 -12 13 -23 1 -13 23 -31 64 -52 34 -17 73 -41 88 -52 31
-24 64 -86 64 -119 0 -13 7 -30 15 -39 8 -8 13 -18 10 -23 -3 -5 -1 -20 5 -34
5 -14 12 -51 15 -82 4 -31 11 -68 16 -81 5 -13 9 -65 9 -115 0 -74 -3 -93 -18
-106 -10 -10 -24 -30 -30 -45 -12 -27 -9 -31 49 -92 34 -35 64 -63 68 -62 3 0
16 -4 29 -11 27 -15 27 -15 3 67 -30 101 -52 263 -67 491 -1 19 -25 81 -54
137 -52 101 -52 104 -55 200 -1 54 0 70 2 35 2 -36 8 -60 13 -57 14 8 13 132
-1 140 -15 10 -1 156 18 177 9 10 13 24 9 33 -3 8 2 32 11 53 25 59 31 74 47
125 9 26 16 53 16 60 0 7 9 29 20 50 25 47 11 48 -24 2z m-146 -184 c0 -6 -12
-23 -26 -38 -28 -30 -28 -29 10 35 9 14 16 16 16 3z"/>
<path d="M3427 8625 c-20 -14 -37 -28 -37 -30 0 -7 34 7 45 19 6 6 21 17 35
23 14 7 18 12 10 12 -9 1 -32 -10 -53 -24z"/>
<path d="M3726 8539 c-4 -30 -10 -65 -13 -79 -5 -23 -4 -24 12 -9 20 20 32 99
18 124 -8 14 -12 6 -17 -36z"/>
<path d="M4195 8500 c3 -5 8 -10 11 -10 2 0 4 5 4 10 0 6 -5 10 -11 10 -5 0
-7 -4 -4 -10z"/>
<path d="M3689 8295 c-5 -52 -1 -65 16 -59 8 4 15 1 15 -5 0 -6 4 -11 9 -11 6
0 3 12 -5 28 -7 15 -14 35 -14 45 0 21 -19 23 -21 2z"/>
<path d="M4905 8186 c-12 -8 -16 -19 -11 -31 6 -17 7 -17 26 0 20 18 27 45 12
45 -5 0 -17 -6 -27 -14z"/>
<path d="M3610 7980 c0 -5 5 -10 10 -10 6 0 10 5 10 10 0 6 -4 10 -10 10 -5 0
-10 -4 -10 -10z"/>
<path d="M3660 7869 c0 -4 -3 -15 -7 -25 -4 -12 -3 -15 5 -10 7 4 12 3 12 -2
0 -6 15 -19 34 -30 28 -16 38 -18 51 -8 22 16 10 43 -29 64 -34 18 -66 24 -66
11z"/>
<path d="M3910 7850 c0 -5 7 -10 15 -10 8 0 15 5 15 10 0 6 -7 10 -15 10 -8 0
-15 -4 -15 -10z"/>
<path d="M4038 7763 c6 -2 18 -2 25 0 6 3 1 5 -13 5 -14 0 -19 -2 -12 -5z"/>
<path d="M4850 7645 c0 -11 5 -27 10 -35 8 -12 10 -12 10 5 0 11 -5 27 -10 35
-8 12 -10 12 -10 -5z"/>
<path d="M4840 7550 c0 -47 -28 -256 -40 -300 -14 -57 -30 -209 -30 -295 0
-113 -41 -350 -95 -550 -25 -93 -51 -188 -57 -210 -10 -40 -24 -280 -34 -590
-4 -130 -8 -162 -21 -172 -17 -13 -16 -19 10 -138 8 -38 18 -87 21 -107 7 -37
7 -37 67 -44 37 -4 63 -12 66 -20 3 -8 10 -11 15 -8 16 10 185 4 263 -10 l70
-11 6 -50 c7 -60 16 -82 35 -89 18 -7 84 19 84 33 0 15 -18 23 -25 11 -6 -10
-55 -14 -55 -5 0 4 7 19 15 35 8 16 14 35 13 42 -2 7 4 12 12 13 8 0 16 5 17
10 1 6 -5 9 -13 7 -24 -5 -15 23 20 62 19 20 33 43 30 51 -3 8 2 82 11 166 13
112 15 154 6 157 -17 6 -14 142 4 162 19 21 21 81 4 153 -12 52 -12 61 5 92
16 28 19 58 20 167 1 136 -12 338 -23 338 -3 0 -15 -12 -28 -27 -20 -25 -22
-26 -22 -8 0 11 6 31 14 45 20 34 20 57 0 40 -8 -6 -20 -8 -26 -4 -7 4 -9 3
-6 -3 4 -6 0 -16 -7 -22 -10 -9 -16 -9 -21 -1 -4 6 12 31 34 55 29 32 41 53
41 75 0 16 -4 30 -10 30 -5 0 -10 15 -10 33 0 24 -3 28 -10 17 -11 -18 -12
-12 -10 57 1 46 -17 102 -41 123 -3 3 -13 25 -23 49 -9 24 -24 54 -32 65 -8
11 -14 29 -14 38 0 10 -4 26 -10 36 -5 9 -23 52 -40 94 -24 57 -41 84 -68 104
-20 16 -42 34 -49 40 -17 16 -3 27 15 11 27 -22 4 44 -27 78 -44 49 -52 62
-45 79 3 9 10 14 14 11 18 -11 18 29 0 73 l-19 47 -1 -35z m315 -950 c-23 -45
-28 -32 -7 18 9 23 18 35 20 27 2 -7 -4 -28 -13 -45z m-24 -163 c-10 -9 -11
-8 -5 6 3 10 9 15 12 12 3 -3 0 -11 -7 -18z m-52 -38 c-18 -16 -33 -28 -35
-27 -6 7 50 67 58 62 5 -3 -6 -19 -23 -35z"/>
<path d="M3760 7126 c0 -11 30 -66 36 -66 2 0 -3 15 -12 33 -19 36 -24 44 -24
33z"/>
<path d="M3820 6980 c0 -5 5 -10 11 -10 5 0 7 5 4 10 -3 6 -8 10 -11 10 -2 0
-4 -4 -4 -10z"/>
<path d="M3335 6318 c-110 -3 -215 -11 -233 -17 -18 -5 -35 -10 -37 -10 -3 -1
-6 -1 -7 -2 -2 0 -12 -2 -22 -4 -10 -2 -23 -10 -27 -17 -5 -7 -9 -10 -9 -5 0
10 -94 -38 -161 -84 -119 -80 -327 -346 -399 -509 -11 -25 -26 -56 -34 -70
-37 -67 -78 -240 -79 -332 0 -25 -5 -38 -16 -41 -13 -4 -12 -5 3 -6 16 -1 17
-3 5 -18 -12 -15 -12 -16 1 -8 13 8 13 7 1 -8 -8 -11 -9 -17 -2 -17 7 0 8 -8
1 -25 -5 -14 -6 -25 -2 -25 10 0 9 -51 -1 -67 -5 -7 -4 -13 1 -13 6 0 9 -18 8
-40 0 -22 4 -42 9 -44 6 -3 4 -5 -3 -5 -8 -1 -10 -6 -5 -13 4 -7 8 -22 9 -33
6 -71 15 -144 19 -170 26 -142 50 -310 65 -455 5 -58 17 -142 26 -187 17 -86
13 -150 -10 -159 -23 -9 -79 -9 -110 -1 -24 7 -28 6 -22 -9 5 -14 4 -15 -9 -4
-8 7 -15 19 -15 26 0 8 -6 11 -15 7 -9 -3 -15 -1 -13 6 3 11 -105 50 -265 96
-57 16 -88 11 -60 -11 16 -12 15 -13 -11 -14 -28 0 -29 -1 -10 -15 17 -13 16
-13 -13 -3 -26 10 -40 9 -70 -1 -38 -14 -73 -42 -73 -60 0 -5 -6 -11 -13 -14
-17 -6 -88 -127 -81 -138 2 -5 -4 -26 -15 -47 -11 -22 -17 -43 -14 -46 4 -4
-2 -9 -14 -12 -11 -3 -26 -15 -32 -27 l-11 -22 6 23 c7 29 -2 28 -21 -2 -15
-22 -15 -27 -1 -55 15 -27 14 -30 -2 -33 -12 -3 0 -15 40 -42 54 -36 61 -38
118 -34 66 5 90 18 72 40 -7 9 -8 34 -2 78 17 126 89 280 134 286 10 1 50 -9
88 -23 120 -43 169 -53 293 -59 181 -10 269 17 310 96 21 41 19 136 -6 230
-11 44 -36 168 -55 277 -19 109 -47 261 -61 338 -22 119 -26 170 -27 335 -1
207 10 271 65 405 66 158 208 373 325 492 87 89 155 128 277 159 85 22 384 26
542 9 178 -21 169 -22 149 18 -9 17 -28 45 -41 61 -17 20 -23 36 -18 53 5 23
4 23 -77 24 -46 1 -96 2 -113 3 -16 0 -120 -2 -230 -6z"/>
<path d="M3896 6231 c-4 -6 -2 -11 3 -11 6 0 11 -8 11 -17 0 -10 9 -29 20 -43
l19 -25 -10 40 c-12 46 -33 73 -43 56z"/>
<path d="M3950 6115 c0 -8 4 -15 10 -15 5 0 7 7 4 15 -4 8 -8 15 -10 15 -2 0
-4 -7 -4 -15z"/>
<path d="M4090 6065 c-19 -14 -40 -25 -47 -25 -13 0 -17 -12 -14 -37 1 -7 -5
-13 -12 -13 -20 0 -24 -21 -21 -122 1 -79 4 -92 33 -134 17 -26 31 -56 31 -66
0 -21 22 -48 40 -48 6 0 15 -11 20 -25 5 -14 22 -31 37 -37 16 -7 54 -38 86
-70 31 -31 57 -54 57 -51 0 3 10 -7 21 -21 17 -21 24 -25 30 -14 6 8 9 0 9
-24 0 -43 -7 -46 -43 -18 -14 11 -29 20 -33 20 -8 0 -29 19 -82 74 -20 21 -52
45 -69 52 -18 8 -33 19 -33 24 0 6 -11 10 -25 10 -29 0 -28 2 -11 -70 22 -91
74 -187 101 -187 6 0 14 -10 20 -22 5 -11 15 -21 21 -21 16 0 23 -34 11 -55
-7 -13 -6 -16 2 -10 7 4 21 -1 33 -12 11 -10 21 -17 22 -15 0 2 13 -1 29 -7
32 -12 34 -33 8 -67 -16 -20 -17 -31 -10 -71 5 -27 14 -49 19 -51 15 -5 12
-29 -5 -36 -21 -8 -19 -39 5 -54 28 -17 25 -31 -11 -63 -27 -24 -30 -31 -19
-44 15 -18 14 -19 -25 -33 -17 -6 -22 -11 -12 -11 24 -1 21 -17 -5 -26 -21 -6
-20 -7 10 -15 50 -12 48 -17 -8 -29 -29 -6 -60 -17 -70 -24 -15 -10 -11 -12
26 -13 25 0 46 -3 48 -5 3 -2 9 -72 15 -154 6 -83 22 -199 35 -260 17 -74 26
-149 28 -228 3 -105 5 -120 25 -142 20 -21 21 -24 5 -28 -12 -3 -11 -5 6 -6
12 0 23 0 25 1 1 1 13 -4 26 -11 16 -9 43 -11 87 -6 62 6 64 7 64 36 0 16 -5
29 -12 29 -9 0 -10 3 -2 8 16 11 25 80 11 86 -9 3 -8 7 2 14 8 6 9 12 3 16 -6
3 -8 29 -5 58 4 49 -8 248 -22 343 -7 51 -34 176 -41 187 -3 4 -7 54 -9 111
-2 56 -6 113 -9 127 -3 14 -10 51 -15 83 -13 77 -21 98 -31 92 -5 -3 -6 10 -3
29 3 20 -5 88 -17 154 -21 105 -26 119 -42 114 -22 -5 -24 13 -3 22 9 3 15 18
15 36 l0 31 -22 -20 c-11 -11 -26 -17 -32 -13 -7 4 -5 8 6 10 20 4 43 75 33
101 -4 9 -9 39 -11 66 -10 104 -13 112 -48 129 -30 14 -34 21 -40 70 -4 30
-13 60 -21 66 -8 6 -11 18 -8 25 2 8 0 38 -6 67 -10 46 -10 54 5 65 16 12 17
16 2 45 -22 46 -96 138 -111 138 -7 0 -28 -11 -47 -25z m263 -800 c-7 -21 -13
-19 -13 6 0 11 4 18 10 14 5 -3 7 -12 3 -20z m32 -45 c3 -5 1 -10 -4 -10 -6 0
-11 5 -11 10 0 6 2 10 4 10 3 0 8 -4 11 -10z m35 -264 c0 -3 -4 -8 -10 -11 -5
-3 -10 -1 -10 4 0 6 5 11 10 11 6 0 10 -2 10 -4z"/>
<path d="M4426 5917 c-3 -12 -6 -32 -6 -44 0 -13 -4 -23 -10 -23 -20 0 -67
-85 -67 -123 -1 -21 -6 -44 -13 -52 -6 -8 -9 -19 -5 -25 9 -15 28 -1 21 16 -3
8 -1 14 4 14 12 0 40 -41 40 -60 0 -8 5 -32 11 -52 9 -36 12 -38 49 -38 37 0
41 -3 61 -45 18 -39 24 -43 40 -34 15 7 18 16 13 37 -9 36 -14 40 -14 11 0
-23 -1 -22 -14 6 -30 66 -37 119 -35 266 0 83 -2 153 -5 156 -3 3 -18 7 -35 9
-23 3 -30 -1 -35 -19z"/>
<path d="M5261 5434 c-1 -29 28 -124 38 -124 5 0 0 28 -10 63 -26 82 -27 86
-28 61z"/>
<path d="M5222 4920 c0 -14 2 -19 5 -12 2 6 2 18 0 25 -3 6 -5 1 -5 -13z"/>
<path d="M5215 4870 c-4 -6 -11 -8 -16 -5 -5 4 -9 -1 -9 -9 0 -22 17 -20 30 4
11 20 6 29 -5 10z"/>
<path d="M5242 4843 c-1 -20 -7 -33 -16 -33 -7 0 -30 -13 -50 -29 -34 -27 -34
-29 -14 -34 22 -6 52 6 76 29 8 9 12 30 9 56 -3 35 -4 37 -5 11z"/>
<path d="M5240 4730 c-6 -11 -8 -20 -6 -20 3 0 10 9 16 20 6 11 8 20 6 20 -3
0 -10 -9 -16 -20z"/>
<path d="M5260 4705 c-5 -14 -30 -46 -56 -70 -30 -30 -40 -45 -29 -45 46 0
115 63 115 106 0 33 -18 39 -30 9z"/>
<path d="M5115 4580 c4 -6 11 -8 16 -5 14 9 11 15 -7 15 -8 0 -12 -5 -9 -10z"/>
<path d="M5115 4530 c-3 -5 -16 -10 -27 -10 -12 0 -18 -3 -15 -7 4 -3 2 -12
-4 -20 -6 -7 -9 -13 -6 -13 4 0 3 -9 -1 -21 -5 -11 -11 -20 -16 -19 -4 0 -15
-9 -25 -22 -14 -17 -27 -22 -55 -20 -34 2 -36 1 -27 -17 6 -11 11 -26 10 -33
0 -7 -4 -5 -8 5 -7 18 -8 18 -21 1 -12 -14 -12 -16 -1 -9 11 6 13 2 7 -19 -4
-17 -3 -25 3 -22 9 6 12 1 26 -54 5 -20 4 -22 -5 -10 -10 13 -11 12 -6 -3 3
-10 6 -23 6 -28 0 -5 8 -9 18 -9 13 0 14 -2 3 -9 -9 -6 -10 -11 -3 -15 6 -4 8
-14 5 -24 -5 -14 -3 -14 9 2 10 13 15 15 15 5 0 -8 11 -43 24 -78 23 -61 26
-64 87 -92 34 -16 62 -32 62 -35 0 -13 -82 5 -101 22 -27 24 -26 -4 1 -34 11
-12 20 -24 20 -27 0 -10 -29 -5 -42 8 -11 10 -28 13 -61 8 -14 -2 13 -41 28
-41 8 0 15 -4 15 -8 0 -8 90 -28 165 -37 51 -5 111 21 152 69 32 36 51 81 39
93 -10 11 -36 -19 -36 -41 0 -13 -11 -33 -24 -46 l-25 -23 -6 29 c-4 16 -9 36
-11 46 -3 9 0 19 6 23 16 10 12 33 -11 56 -11 11 -19 29 -16 38 7 29 -11 223
-22 234 -6 6 -11 38 -11 72 0 49 -4 62 -20 73 -11 7 -20 18 -20 25 0 30 -61
60 -75 37z"/>
<path d="M4931 4274 c0 -11 3 -14 6 -6 3 7 2 16 -1 19 -3 4 -6 -2 -5 -13z"/>
<path d="M4990 4096 c0 -8 4 -17 9 -20 5 -4 7 3 4 14 -6 23 -13 26 -13 6z"/>
<path d="M4784 3893 c4 -32 10 -60 14 -63 4 -3 7 -20 7 -38 0 -24 -5 -34 -20
-38 -11 -3 -31 -13 -45 -23 -25 -16 -24 -16 45 -22 39 -3 72 -4 75 -2 2 2 -2
13 -9 25 -10 17 -10 23 1 34 9 9 12 33 10 78 -4 62 -5 66 -38 86 -20 11 -38
20 -41 20 -3 0 -3 -26 1 -57z"/>
<path d="M5236 3815 c4 -8 13 -15 21 -15 13 0 13 3 3 15 -7 8 -16 15 -21 15
-5 0 -6 -7 -3 -15z"/>
<path d="M4582 3800 c0 -14 2 -19 5 -12 2 6 2 18 0 25 -3 6 -5 1 -5 -13z"/>
<path d="M1028 3773 c6 -2 18 -2 25 0 6 3 1 5 -13 5 -14 0 -19 -2 -12 -5z"/>
<path d="M4588 3753 c6 -2 12 -15 12 -28 0 -34 17 -40 24 -9 8 32 1 44 -27 43
-12 0 -16 -3 -9 -6z"/>
<path d="M4562 3730 c0 -14 2 -19 5 -12 2 6 2 18 0 25 -3 6 -5 1 -5 -13z"/>
<path d="M4460 3721 c0 -6 4 -13 10 -16 6 -3 7 1 4 9 -7 18 -14 21 -14 7z"/>
<path d="M4511 3714 c0 -11 3 -14 6 -6 3 7 2 16 -1 19 -3 4 -6 -2 -5 -13z"/>
<path d="M4697 3703 c-4 -3 -7 -13 -7 -22 1 -13 3 -13 11 2 11 19 8 33 -4 20z"/>
<path d="M4580 3670 c0 -5 7 -10 16 -10 8 0 12 5 9 10 -3 6 -10 10 -16 10 -5
0 -9 -4 -9 -10z"/>
<path d="M5246 3665 c-3 -9 0 -15 9 -15 8 0 15 7 15 15 0 8 -4 15 -9 15 -5 0
-11 -7 -15 -15z"/>
<path d="M5350 3628 c0 -14 23 -58 32 -58 4 0 8 3 8 8 -1 9 -39 59 -40 50z"/>
<path d="M5300 3596 c14 -18 13 -19 -3 -13 -26 10 -57 -10 -57 -36 0 -17 10
-28 35 -40 47 -23 51 -22 65 13 12 28 10 32 -21 62 -18 18 -27 24 -19 14z"/>
<path d="M750 3549 c42 -17 90 -59 90 -80 0 -10 4 -19 8 -19 5 0 14 -12 20
-26 7 -14 8 -23 2 -19 -5 3 -10 2 -10 -4 0 -5 5 -13 10 -16 16 -10 12 -35 -5
-29 -8 4 -13 10 -10 14 7 12 -6 41 -15 35 -5 -3 -12 5 -15 17 -9 29 -34 58
-60 69 -15 7 -11 8 13 3 39 -7 43 9 5 24 -56 22 -83 19 -124 -15 -102 -86
-128 -325 -51 -468 l27 -50 80 -5 c44 -3 82 -2 83 2 2 5 8 8 13 8 6 0 8 -3 6
-7 -3 -5 68 -8 156 -9 89 0 291 -4 448 -9 279 -7 379 -3 379 16 0 5 -7 9 -15
9 -8 0 -15 4 -15 9 0 4 31 11 70 14 139 12 192 68 196 209 2 68 0 78 -15 78
-26 0 -30 8 -18 39 8 23 6 31 -13 54 -13 15 -28 27 -33 27 -6 0 -25 11 -43 25
-34 26 -60 33 -48 13 5 -8 2 -9 -10 -5 -10 4 -23 7 -29 8 -7 0 -3 4 8 9 19 8
19 9 -2 9 -12 1 -25 -3 -28 -9 -8 -12 -97 -13 -110 -1 -10 8 -131 51 -146 51
-4 0 -9 -9 -12 -20 -4 -17 -9 -18 -38 -8 -63 20 -107 21 -125 3 -14 -13 -19
-14 -26 -3 -7 10 -11 10 -14 1 -3 -7 -12 -9 -20 -6 -21 8 -17 -13 12 -75 15
-31 29 -73 32 -94 l5 -38 -39 0 c-63 0 -377 20 -381 23 -2 2 -10 30 -18 62
-25 93 -61 151 -110 175 -23 11 -52 20 -66 19 l-24 0 25 -10z m7 -121 c-3 -8
-6 -5 -6 6 -1 11 2 17 5 13 3 -3 4 -12 1 -19z m-44 -8 c-3 -12 -8 -19 -11 -16
-5 6 5 36 12 36 2 0 2 -9 -1 -20z m-97 -84 c-8 -6 -17 -22 -19 -36 -4 -21 -5
-20 -6 8 0 17 4 32 9 32 6 0 10 12 11 28 0 27 0 27 10 3 7 -17 6 -26 -5 -35z
m14 -27 c0 -5 -4 -9 -10 -9 -5 0 -10 7 -10 16 0 8 5 12 10 9 6 -3 10 -10 10
-16z m37 -5 c-3 -3 -12 -4 -19 -1 -8 3 -5 6 6 6 11 1 17 -2 13 -5z m-26 -28
c5 3 9 0 9 -6 0 -15 -23 -7 -26 8 -1 7 0 8 3 2 2 -5 9 -8 14 -4z m23 -38 c5
-4 -6 -3 -24 2 -25 7 -36 6 -42 -3 -9 -14 -10 -5 -2 17 5 12 11 13 32 4 15 -7
31 -15 36 -20z"/>
<path d="M5179 3463 c-2 -69 3 -97 18 -108 10 -7 13 -22 10 -43 -3 -19 -1 -30
4 -26 6 3 9 -11 9 -33 -1 -21 -1 -71 -1 -111 l2 -72 29 15 c16 8 35 15 42 15
7 0 -5 -9 -27 -21 -53 -28 -61 -37 -48 -50 12 -12 46 6 90 45 25 21 43 15 24
-8 -7 -8 -10 -20 -6 -26 3 -6 -4 -10 -17 -11 -22 0 -22 -1 -3 -8 25 -10 214
-2 235 10 11 6 6 8 -17 9 -33 0 -47 23 -20 33 6 3 2 6 -10 6 -25 1 -32 21 -8
21 8 0 15 4 15 10 0 5 11 9 26 8 21 -2 24 -6 19 -25 -3 -13 -1 -23 5 -23 5 0
10 5 10 11 0 5 5 7 10 4 22 -13 8 25 -15 43 -17 13 -23 26 -19 37 4 10 -2 28
-15 45 -11 16 -21 33 -21 37 0 4 -11 30 -24 58 -28 58 -56 142 -56 168 0 9 -4
17 -10 17 -5 0 -10 -4 -10 -10 0 -5 -19 -14 -41 -20 -37 -10 -45 -9 -68 8 -14
10 -45 22 -68 25 l-43 7 -1 -37z m86 -13 c47 -24 68 -25 99 -5 22 15 24 14 29
-5 4 -17 0 -20 -24 -20 -21 0 -27 -4 -23 -15 8 -21 -15 -19 -54 5 -18 11 -39
20 -47 20 -8 0 -15 2 -15 4 0 2 -3 11 -6 20 -8 20 -6 20 41 -4z m47 -61 c35
-18 45 -19 61 -9 16 9 21 9 28 -1 10 -18 4 -26 -27 -33 -15 -4 -32 -2 -40 5
-8 7 -32 15 -52 18 -24 4 -38 12 -40 24 -5 23 19 22 70 -4z m-9 -51 c12 -7 30
-19 39 -27 15 -12 21 -11 42 2 13 9 26 13 30 10 14 -15 4 -32 -26 -42 -26 -9
-34 -9 -40 3 -4 8 -26 17 -48 21 -41 7 -56 18 -45 35 8 13 21 13 48 -2z m31
-77 c28 -15 44 -17 62 -11 16 6 24 6 24 -1 0 -6 5 -7 10 -4 6 3 10 1 10 -4 0
-6 -10 -11 -22 -12 l-23 0 23 -11 c38 -19 24 -28 -31 -22 -33 4 -62 2 -75 -5
-23 -12 -55 -4 -49 13 2 6 20 12 40 14 48 4 48 20 0 24 -27 2 -39 8 -41 21 -5
23 23 22 72 -2z m26 -200 c0 -12 -20 -25 -27 -18 -7 7 6 27 18 27 5 0 9 -4 9
-9z"/>
<path d="M815 3480 c3 -5 8 -10 11 -10 2 0 4 5 4 10 0 6 -5 10 -11 10 -5 0 -7
-4 -4 -10z"/>
<path d="M962 3430 c0 -14 2 -19 5 -12 2 6 2 18 0 25 -3 6 -5 1 -5 -13z"/>
<path d="M4475 3290 c3 -4 -2 -10 -10 -14 -22 -8 -18 -24 7 -28 12 -2 24 -9
26 -17 3 -10 -1 -12 -17 -8 -22 5 -30 -8 -8 -16 7 -3 5 -6 -5 -6 -21 -1 -24
-17 -5 -25 9 -5 9 -7 -1 -12 -10 -5 -10 -9 -1 -20 9 -11 9 -14 -1 -14 -10 0
-10 -3 0 -15 18 -22 5 -30 -24 -17 -22 10 -24 9 -19 -5 5 -12 2 -15 -10 -10
-9 3 -27 2 -39 -3 -19 -7 -16 -9 20 -9 23 -1 42 -5 42 -11 0 -5 -6 -10 -14
-10 -8 0 -16 -6 -19 -14 -4 -11 -19 -13 -65 -9 -39 4 -62 2 -66 -6 -5 -7 4
-11 26 -11 18 0 64 -11 101 -24 74 -26 228 -35 257 -15 11 8 -3 9 -52 6 -38
-3 -68 -1 -68 4 0 5 29 9 65 9 76 0 77 1 45 102 -11 34 -20 71 -20 81 0 25
-57 81 -108 105 -23 11 -40 17 -37 12z"/>
<path d="M4847 3205 c-17 -12 -18 -20 -8 -84 6 -38 15 -81 20 -94 6 -14 7 -27
4 -30 -7 -8 6 -45 23 -62 12 -11 39 -15 113 -15 54 0 113 3 130 6 31 6 42 30
19 39 -11 4 -87 11 -150 14 -29 2 -49 29 -36 50 8 14 8 30 0 64 -7 25 -12 59
-12 76 0 47 -61 68 -103 36z"/>
<path d="M4300 3100 c-9 -6 -10 -10 -3 -10 6 0 15 5 18 10 8 12 4 12 -15 0z"/>
<path d="M5560 3061 c0 -6 5 -13 10 -16 6 -3 10 1 10 9 0 9 -4 16 -10 16 -5 0
-10 -4 -10 -9z"/>
<path d="M5475 3000 c3 -5 19 -10 36 -10 16 0 29 5 29 10 0 6 -16 10 -36 10
-21 0 -33 -4 -29 -10z"/>
<path d="M4305 2983 c11 -2 53 -15 93 -29 40 -13 85 -24 100 -23 19 0 13 4
-23 14 -27 7 -70 20 -94 29 -24 9 -55 15 -70 15 -20 -1 -21 -2 -6 -6z"/>
<path d="M5290 2930 c0 -5 5 -10 11 -10 5 0 7 5 4 10 -3 6 -8 10 -11 10 -2 0
-4 -4 -4 -10z"/>
<path d="M5398 2900 c-4 -12 -116 -18 -517 -25 -175 -3 -312 -10 -323 -16 -12
-7 -17 -17 -13 -29 3 -10 2 -21 -4 -24 -5 -3 -7 -15 -4 -27 4 -15 0 -22 -18
-27 l-24 -6 25 -6 c30 -8 585 -2 918 9 211 8 245 11 262 26 20 18 25 51 13 94
l-6 24 -149 -5 c-122 -4 -148 -3 -144 9 3 7 1 13 -3 13 -5 0 -11 -5 -13 -10z"/>
<path d="M4450 2766 c0 -2 7 -7 16 -10 8 -3 12 -2 9 4 -6 10 -25 14 -25 6z"/>
<path d="M4923 2655 c1 -36 5 -65 9 -65 13 0 20 21 11 33 -10 14 -10 38 0 54
8 13 -1 43 -14 43 -5 0 -8 -29 -6 -65z"/>
<path d="M4965 2690 c3 -5 8 -10 11 -10 2 0 4 5 4 10 0 6 -5 10 -11 10 -5 0
-7 -4 -4 -10z"/>
<path d="M5095 2692 c-12 -12 -4 -20 15 -15 11 3 20 9 20 12 0 9 -27 10 -35 3z"/>
<path d="M5166 2672 c-6 -10 6 -26 22 -29 17 -4 15 24 -3 30 -8 4 -16 3 -19
-1z"/>
<path d="M5218 2593 c7 -3 16 -2 19 1 4 3 -2 6 -13 5 -11 0 -14 -3 -6 -6z"/>
<path d="M4917 2553 c-8 -8 25 -33 35 -27 5 3 8 10 8 16 0 6 -3 8 -7 5 -3 -4
-11 -2 -18 3 -7 5 -15 7 -18 3z"/>
<path d="M5314 2545 c-4 -11 -12 -23 -18 -27 -6 -5 -2 -8 11 -8 12 0 24 -6 26
-12 3 -7 6 -2 6 12 0 14 -3 32 -9 40 -7 12 -10 11 -16 -5z"/>
<path d="M5141 2504 c0 -11 3 -14 6 -6 3 7 2 16 -1 19 -3 4 -6 -2 -5 -13z"/>
<path d="M4903 2498 c-4 -7 -9 -24 -11 -37 -3 -20 -1 -22 11 -12 16 13 29 61
16 61 -4 0 -11 -6 -16 -12z"/>
<path d="M5205 2451 c-3 -5 -1 -12 5 -16 5 -3 10 1 10 9 0 18 -6 21 -15 7z"/>
<path d="M5395 2440 c3 -5 8 -10 11 -10 2 0 4 5 4 10 0 6 -5 10 -11 10 -5 0
-7 -4 -4 -10z"/>
<path d="M5020 2430 c0 -5 5 -10 11 -10 5 0 7 5 4 10 -3 6 -8 10 -11 10 -2 0
-4 -4 -4 -10z"/>
<path d="M5473 2433 c12 -3 16 -10 12 -21 -5 -13 -3 -14 6 -5 14 14 3 33 -19
32 -15 -1 -14 -2 1 -6z"/>
<path d="M5091 2423 c-1 -6 -9 -10 -19 -8 -15 3 -18 -2 -14 -21 2 -14 9 -23
14 -22 5 2 9 7 8 12 -1 5 4 12 10 16 7 4 10 14 7 21 -3 9 -6 10 -6 2z"/>
<path d="M4896 2410 c-9 -22 7 -151 19 -148 11 3 8 71 -4 128 -6 24 -10 30
-15 20z"/>
<path d="M5140 2395 c7 -9 15 -13 17 -11 7 7 -7 26 -19 26 -6 0 -6 -6 2 -15z"/>
<path d="M5340 2391 c0 -5 7 -11 14 -14 10 -4 13 -1 9 9 -6 15 -23 19 -23 5z"/>
<path d="M5570 2393 c0 -5 13 -17 28 -27 l27 -19 -24 26 c-26 28 -31 32 -31
20z"/>
<path d="M5620 2380 c0 -5 5 -10 10 -10 6 0 10 5 10 10 0 6 -4 10 -10 10 -5 0
-10 -4 -10 -10z"/>
<path d="M5650 2360 c0 -6 7 -10 15 -10 8 0 15 2 15 4 0 2 -7 6 -15 10 -8 3
-15 1 -15 -4z"/>
<path d="M5696 2353 c-4 -10 -4 -14 0 -10 4 4 16 0 26 -10 10 -9 21 -14 24
-10 3 3 18 1 32 -4 18 -7 28 -6 34 3 6 10 10 10 16 2 9 -15 65 -24 452 -74
173 -22 482 -63 685 -90 204 -27 645 -83 980 -125 406 -51 618 -82 633 -91 13
-8 32 -29 43 -47 18 -30 19 -43 14 -182 -4 -82 -13 -179 -21 -215 -18 -81 -76
-187 -145 -263 l-52 -59 21 -21 22 -21 46 44 c61 59 106 130 144 225 36 90 48
174 52 347 2 119 1 126 -25 171 -54 92 -12 83 -922 196 -445 56 -987 124
-1203 151 -217 28 -423 50 -458 50 -36 0 -108 5 -162 12 -53 6 -120 11 -149
11 -34 0 -54 5 -57 14 -7 18 -23 16 -30 -4z"/>
<path d="M4960 2335 c0 -14 3 -25 8 -25 11 0 32 37 25 44 -15 15 -33 4 -33
-19z"/>
<path d="M5195 2340 c3 -5 11 -10 16 -10 6 0 7 5 4 10 -3 6 -11 10 -16 10 -6
0 -7 -4 -4 -10z"/>
<path d="M5330 2341 c0 -5 11 -16 25 -25 31 -20 33 -10 3 15 -24 21 -28 23
-28 10z"/>
<path d="M5012 2318 c-15 -15 -16 -42 -1 -32 6 3 15 0 20 -7 6 -10 9 -10 9 -2
0 7 7 10 15 7 8 -4 12 -10 9 -15 -3 -5 0 -9 5 -9 6 0 11 -5 11 -11 0 -8 -5 -7
-15 1 -12 10 -19 10 -27 2 -15 -15 -32 -16 -23 -2 3 6 -3 10 -14 10 -11 0 -22
-9 -26 -20 -7 -23 3 -82 13 -76 4 2 12 -2 19 -9 10 -11 10 -14 0 -18 -7 -2 -3
-9 11 -16 28 -15 28 -38 0 -68 -12 -13 -16 -23 -10 -23 6 0 9 -7 5 -15 -9 -26
18 -107 39 -113 20 -5 24 -37 6 -46 -7 -4 -3 -4 10 -2 12 2 20 0 17 -4 -3 -5
-1 -11 4 -14 5 -4 12 -2 16 4 10 16 25 12 25 -6 0 -13 -7 -15 -36 -11 l-36 6
6 -40 c4 -23 13 -48 21 -56 8 -8 15 -22 15 -31 -1 -12 -5 -10 -15 8 -14 24
-14 23 -15 -31 0 -34 5 -61 13 -67 6 -5 254 -50 549 -99 520 -87 538 -89 554
-71 20 22 62 23 109 4 18 -8 43 -12 55 -9 12 3 31 1 43 -5 29 -14 73 -24 122
-27 107 -7 142 -22 117 -50 -14 -16 -2 -123 14 -129 11 -4 14 6 14 50 0 46 3
55 15 50 8 -3 15 -1 15 4 0 6 -7 10 -15 10 -23 0 -18 30 8 39 l22 9 -24 9 -24
9 28 22 c15 12 38 22 50 22 31 0 75 -37 75 -63 0 -18 9 -25 48 -35 26 -7 55
-13 65 -13 9 1 40 2 67 3 35 1 55 -3 66 -14 13 -12 29 -15 74 -11 54 5 61 3
83 -21 30 -32 39 -33 31 -2 -3 13 -1 34 6 45 26 50 118 3 107 -54 -4 -25 -3
-26 27 -21 19 4 42 0 60 -9 15 -8 46 -15 67 -15 21 0 41 -4 44 -10 3 -5 26
-18 51 -29 34 -15 51 -18 70 -11 40 16 79 12 108 -11 24 -19 26 -27 26 -90 0
-56 3 -69 15 -69 14 0 16 16 14 105 -2 144 22 177 105 145 33 -12 35 -54 5
-104 l-20 -35 37 -7 c46 -9 166 1 222 18 l44 13 -62 70 c-34 39 -74 87 -89
107 -14 21 -29 38 -32 38 -3 0 -25 -18 -49 -40 -42 -39 -46 -40 -90 -34 -80
12 -93 20 -86 55 3 18 6 38 6 45 0 7 25 32 55 55 30 23 55 45 55 50 0 5 -25
35 -55 66 -50 53 -54 62 -55 106 0 43 2 47 25 47 13 0 46 -5 73 -10 41 -9 54
-18 87 -61 l38 -50 41 39 41 39 60 -9 c33 -4 65 -10 70 -12 6 -2 8 -25 6 -52
-3 -46 -6 -51 -57 -89 -29 -22 -54 -43 -54 -46 0 -4 30 -40 68 -80 37 -41 84
-93 104 -116 l37 -41 49 52 c28 29 68 89 90 132 45 90 60 167 64 336 2 90 0
111 -14 125 -14 13 -106 28 -440 70 -233 29 -427 51 -433 49 -5 -2 19 -7 55
-12 61 -7 63 -8 33 -16 -42 -11 -42 -19 0 -13 l32 5 -30 -14 c-16 -9 -23 -15
-14 -16 12 0 14 -10 11 -57 -5 -70 6 -165 19 -158 5 3 6 -1 3 -9 -5 -12 -10
-13 -24 -3 -15 9 -17 14 -7 27 10 13 10 13 -5 2 -15 -12 -15 -17 11 -58 24
-37 28 -54 27 -107 l-1 -62 -90 2 c-49 2 -111 5 -137 8 -41 5 -47 3 -42 -10 4
-9 25 -25 47 -37 32 -16 50 -19 86 -14 25 4 55 8 65 9 25 3 71 -80 55 -99 -19
-24 -80 -37 -146 -31 -152 12 -263 118 -263 251 0 25 -4 36 -15 36 -11 0 -15
12 -15 48 0 27 -6 56 -12 65 -11 14 -13 -16 -16 -160 -1 -97 -3 -177 -5 -179
-7 -6 -139 23 -145 33 -4 6 -4 53 -1 105 6 109 0 128 -42 128 -19 0 -28 4 -23
11 3 6 19 9 34 7 19 -3 26 0 23 8 -8 21 -53 26 -79 9 -22 -14 -24 -22 -24 -89
0 -40 -3 -95 -7 -121 l-6 -47 -51 6 c-107 14 -98 1 -90 142 l7 123 -38 7 c-37
7 -37 7 -31 46 4 22 7 44 9 50 1 6 -3 12 -9 15 -17 6 -24 -56 -24 -209 l0
-138 -32 0 c-18 0 -50 3 -70 6 -32 6 -38 11 -38 30 0 24 -14 32 -25 14 -3 -5
-21 -14 -40 -19 -72 -20 -153 25 -198 108 -22 40 -27 62 -27 120 0 39 -4 71
-8 71 -5 0 -14 10 -20 23 -10 18 -11 14 -6 -25 11 -89 10 -90 -129 -82 l-122
7 19 -21 c36 -41 124 -51 163 -20 8 7 18 -2 32 -31 12 -22 21 -47 21 -55 0
-23 -53 -46 -103 -46 -148 0 -264 105 -257 234 3 49 1 56 -16 56 -14 0 -16 11
-10 98 11 157 12 192 1 192 -12 0 -22 -140 -27 -364 l-3 -158 -60 6 c-32 3
-63 10 -69 16 -5 5 -8 82 -7 184 2 169 2 174 -18 181 -12 3 -21 10 -21 15 0
10 20 8 39 -4 11 -7 13 -5 8 8 -4 10 -7 20 -7 22 0 2 -7 4 -16 4 -14 0 -14 2
0 22 9 13 15 40 15 63 -1 23 -4 30 -6 18 -2 -13 -9 -23 -15 -23 -6 0 -8 -11
-6 -25 3 -13 1 -22 -3 -19 -5 2 -20 -13 -35 -36 -15 -22 -30 -40 -35 -40 -4 0
-21 14 -37 30 -17 17 -40 30 -51 30 -11 0 -22 4 -25 9 -6 9 -131 34 -173 34
-12 0 -30 -8 -39 -17 -26 -26 -6 -76 70 -176 89 -116 145 -139 218 -89 14 11
28 19 31 19 3 0 19 -25 36 -55 38 -67 33 -83 -35 -115 -37 -18 -57 -22 -108
-18 -34 3 -80 15 -102 26 -54 27 -120 101 -151 168 -13 30 -28 54 -32 54 -5 0
-16 20 -25 45 -19 49 -19 49 -45 35 -16 -8 -20 -5 -25 20 -4 21 -10 28 -21 24
-21 -8 -19 8 4 33 20 21 33 114 16 112 -21 -3 -35 -12 -35 -21 0 -6 6 -5 15 2
12 10 15 10 15 -4 0 -9 -8 -16 -17 -16 -14 0 -15 -2 -4 -9 9 -6 10 -11 2 -15
-6 -4 -11 -2 -11 4 0 6 -5 8 -12 4 -10 -6 -10 -5 -1 7 9 11 6 20 -13 42 -13
15 -24 22 -24 15 0 -8 -5 -6 -11 5 -5 9 -17 17 -24 17 -8 0 -15 7 -15 15 0 13
4 14 20 5 11 -6 20 -8 20 -4 0 3 8 0 17 -7 15 -12 16 -12 10 4 -4 10 -7 21 -7
24 0 3 -8 -1 -17 -8 -17 -13 -17 -13 0 7 16 20 16 21 -6 33 -13 7 -31 13 -42
15 -10 1 -21 8 -23 14 -2 7 2 10 11 6 8 -3 18 -1 22 5 9 15 -28 14 -43 -1z
m24 -115 c-10 -10 -19 5 -10 18 6 11 8 11 12 0 2 -7 1 -15 -2 -18z m44 -23 c0
-5 8 -10 18 -10 16 -1 16 -1 -1 -11 -9 -6 -15 -14 -12 -19 6 -10 -29 -32 -38
-23 -3 3 1 12 9 20 8 9 12 23 9 34 -4 11 -2 19 4 19 6 0 11 -4 11 -10z m40
-60 c0 -5 -7 -10 -15 -10 -8 0 -15 5 -15 10 0 6 7 10 15 10 8 0 15 -4 15 -10z
m320 -90 c0 -11 -4 -20 -10 -20 -5 0 -10 9 -10 20 0 11 5 20 10 20 6 0 10 -9
10 -20z m200 -5 c7 -9 8 -15 2 -15 -5 0 -12 7 -16 15 -3 8 -4 15 -2 15 2 0 9
-7 16 -15z m-550 -5 c0 -5 -7 -10 -15 -10 -8 0 -15 5 -15 10 0 6 7 10 15 10 8
0 15 -4 15 -10z m42 -62 c-9 -9 -15 -9 -24 1 -9 10 -9 12 -1 7 6 -3 15 -1 18
5 4 5 10 8 13 4 3 -3 0 -11 -6 -17z m30 0 c-7 -7 -12 -8 -12 -2 0 14 12 26 19
19 2 -3 -1 -11 -7 -17z m78 7 c7 -9 11 -17 9 -19 -7 -7 -49 13 -49 24 0 15 26
12 40 -5z m-117 -33 c7 -11 -4 -62 -14 -62 -4 0 -7 8 -7 18 0 9 -3 25 -7 35
-5 12 -3 17 8 17 9 0 18 -3 20 -8z m73 -9 c19 -26 17 -39 -4 -20 -10 10 -23
13 -31 8 -10 -7 -9 -9 3 -14 10 -4 16 -18 16 -36 0 -23 4 -29 15 -25 8 4 15 1
15 -4 0 -15 -18 -24 -25 -13 -3 6 -12 8 -20 4 -8 -3 -15 -1 -15 5 0 6 6 13 13
15 7 3 5 6 -5 6 -23 1 -24 48 -1 73 20 22 23 22 39 1z m61 -68 l-1 -34 -31 27
c-26 23 -29 29 -16 38 26 20 49 5 48 -31z m-117 -55 c0 -5 -5 -10 -11 -10 -5
0 -7 5 -4 10 3 6 8 10 11 10 2 0 4 -4 4 -10z m70 -15 c-7 -9 -15 -13 -19 -10
-3 3 1 10 9 15 21 14 24 12 10 -5z m-15 -56 c11 -17 -1 -21 -15 -4 -8 9 -8 15
-2 15 6 0 14 -5 17 -11z m85 -10 c0 -6 -4 -7 -10 -4 -5 3 -10 11 -10 16 0 6 5
7 10 4 6 -3 10 -11 10 -16z m2536 -66 c-3 -8 -1 -24 5 -35 6 -11 9 -21 7 -24
-2 -2 -14 16 -25 40 -21 43 -21 44 -2 39 12 -4 18 -11 15 -20z"/>
<path d="M4916 2178 c3 -24 8 -54 11 -68 l5 -25 9 23 c12 31 -4 112 -22 112
-5 0 -7 -18 -3 -42z"/>
<path d="M4940 2048 c0 -15 5 -30 10 -33 6 -3 10 -31 10 -61 0 -43 3 -54 16
-54 12 0 14 -3 6 -12 -14 -18 -15 -219 -1 -271 15 -59 53 -104 97 -117 20 -6
267 -51 547 -99 509 -88 510 -88 522 -67 6 12 9 24 5 27 -4 4 -247 48 -541 98
-405 69 -539 95 -554 108 -27 25 -39 60 -41 118 -1 28 -5 55 -9 62 -4 6 -3 13
2 15 6 2 4 35 -5 83 -8 44 -19 104 -24 133 -5 28 -16 62 -24 74 l-16 22 0 -26z"/>
<path d="M7548 2013 c6 -2 18 -2 25 0 6 3 1 5 -13 5 -14 0 -19 -2 -12 -5z"/>
<path d="M7618 2003 c6 -2 18 -2 25 0 6 3 1 5 -13 5 -14 0 -19 -2 -12 -5z"/>
<path d="M6117 1862 c-34 -37 -22 -52 39 -52 53 0 55 1 48 22 -14 46 -59 61
-87 30z m73 -21 c0 -4 -11 -6 -25 -3 -14 2 -25 6 -25 8 0 2 11 4 25 4 14 0 25
-4 25 -9z"/>
<path d="M7046 1805 c4 -8 8 -15 10 -15 2 0 4 7 4 15 0 8 -4 15 -10 15 -5 0
-7 -7 -4 -15z"/>
<path d="M6552 1780 c-51 -21 -47 -101 7 -133 57 -33 111 -10 111 48 0 61 -64
107 -118 85z"/>
<path d="M7745 1750 c-3 -5 -13 -6 -23 -3 -13 5 -14 3 -5 -7 9 -10 16 -9 34 4
13 9 18 16 12 16 -7 0 -14 -4 -18 -10z"/>
<path d="M7537 1652 c-19 -20 -23 -52 -7 -52 5 0 14 9 21 21 8 17 18 20 45 17
38 -4 45 6 15 22 -29 15 -56 12 -74 -8z"/>
<path d="M6187 1343 c-4 -55 -2 -80 6 -85 8 -5 13 1 15 17 3 21 7 23 33 18 40
-8 59 11 59 58 0 43 -25 64 -66 56 -13 -2 -24 0 -24 4 0 5 -4 9 -9 9 -4 0 -11
-35 -14 -77z m88 37 c15 -17 16 -24 6 -46 -8 -18 -18 -24 -33 -22 -31 5 -44
31 -30 62 14 31 33 33 57 6z"/>
<path d="M6336 1365 c-9 -33 -7 -85 4 -85 6 0 10 16 10 35 0 24 6 39 20 47 27
17 25 26 -4 24 -16 0 -27 -9 -30 -21z"/>
<path d="M6492 1354 c-29 -20 -28 -59 3 -90 50 -50 116 -9 93 58 -6 16 -21 34
-35 39 -32 12 -35 12 -61 -7z m67 -18 c7 -8 11 -27 9 -43 -3 -24 -8 -28 -33
-28 -23 0 -32 6 -39 27 -16 46 33 80 63 44z"/>
<path d="M6402 1297 l-23 -25 27 -6 c33 -9 35 -6 26 28 l-7 27 -23 -24z"/>
<path d="M6762 1308 c-18 -18 -14 -73 6 -91 23 -21 82 -34 82 -18 0 6 -11 11
-24 11 -24 0 -56 23 -56 41 0 5 20 6 45 2 40 -5 45 -4 45 14 0 42 -69 70 -98
41z m59 -8 c28 -15 23 -30 -9 -30 -35 0 -45 9 -31 27 14 16 15 16 40 3z"/>
<path d="M6917 1293 c-15 -14 -6 -43 18 -59 36 -24 33 -48 -5 -40 -39 7 -39
-10 0 -19 59 -13 81 34 30 63 -37 21 -40 46 -5 40 28 -6 34 6 9 16 -20 8 -39
8 -47 -1z"/>
<path d="M7063 1253 c-4 -11 4 -25 27 -45 27 -22 32 -30 22 -40 -10 -10 -17
-10 -32 0 -13 8 -20 8 -20 2 0 -16 43 -29 63 -18 25 13 21 47 -8 60 -14 6 -25
20 -25 30 0 15 5 17 26 12 19 -5 25 -4 20 5 -11 18 -66 14 -73 -6z"/>
<path d="M5444 1235 c-9 -14 -15 -27 -13 -30 3 -2 12 10 21 26 21 36 15 39 -8
4z"/>
<path d="M6697 1236 c-3 -8 -2 -18 4 -22 16 -9 22 2 11 21 -8 15 -10 16 -15 1z"/>
<path d="M7227 1193 c-8 -76 8 -92 18 -18 4 33 3 61 -3 67 -6 6 -11 -13 -15
-49z"/>
<path d="M5460 1193 c-36 -64 -40 -73 -32 -73 4 0 17 7 28 16 10 8 13 13 7 9
-19 -9 -16 13 8 51 11 19 18 34 16 34 -3 0 -15 -17 -27 -37z"/>
<path d="M7337 1218 c-24 -18 -25 -72 -2 -98 26 -29 85 -24 101 8 17 34 5 71
-27 87 -34 18 -50 19 -72 3z m76 -29 c16 -22 12 -52 -9 -70 -22 -18 -64 14
-64 50 0 43 48 57 73 20z"/>
<path d="M7481 1140 c-2 -48 1 -60 13 -60 11 0 16 13 18 47 2 38 7 49 22 51
28 6 46 -25 46 -75 0 -24 5 -43 10 -43 6 0 10 25 10 55 0 47 -3 57 -25 71 -21
14 -31 15 -50 6 -15 -7 -25 -8 -25 -2 0 6 -4 10 -8 10 -5 0 -10 -27 -11 -60z"/>
<path d="M5795 1170 c-4 -6 -4 -14 -1 -17 3 -4 6 -1 6 5 0 7 5 12 10 12 14 0
12 -27 -2 -33 -8 -3 -5 -6 5 -6 13 -1 18 5 15 21 -3 24 -23 35 -33 18z"/>
<path d="M7661 1171 c-11 -7 -6 -10 20 -13 22 -2 35 -9 37 -20 2 -13 -5 -17
-35 -20 -33 -3 -38 -7 -41 -30 -3 -29 9 -36 73 -44 l35 -4 0 45 c0 66 -48 112
-89 86z m57 -83 c-3 -25 -25 -33 -47 -19 -21 14 -5 41 24 41 22 0 26 -4 23
-22z"/>
<path d="M5405 1159 c-4 -6 -5 -12 -2 -15 2 -3 7 2 10 11 7 17 1 20 -8 4z"/>
<path d="M5518 1141 c-10 -16 -15 -18 -27 -8 -12 10 -13 9 -3 -10 16 -29 16
-77 0 -67 -6 4 -8 3 -5 -4 4 -5 17 -8 29 -4 12 3 17 7 10 10 -17 5 -15 53 4
80 8 12 13 22 10 22 -3 0 -11 -9 -18 -19z"/>
<path d="M6321 1129 c-6 -17 -22 -40 -36 -51 -17 -13 -25 -29 -24 -46 1 -15
-2 -36 -5 -47 l-8 -20 14 20 c7 11 13 34 13 50 0 21 6 33 22 40 12 5 25 22 28
37 10 45 29 47 22 2 -6 -35 -5 -36 4 -11 11 29 6 57 -10 57 -5 0 -14 -14 -20
-31z"/>
<path d="M7260 1130 c0 -5 5 -10 11 -10 5 0 7 5 4 10 -3 6 -8 10 -11 10 -2 0
-4 -4 -4 -10z"/>
<path d="M5391 1108 c-1 -35 14 -44 44 -24 30 20 33 20 38 -1 4 -16 5 -16 6
-1 2 25 -16 31 -41 14 -31 -22 -36 -20 -41 12 l-4 27 -2 -27z"/>
<path d="M5536 1114 c-15 -40 13 -47 51 -12 39 36 36 14 -8 -79 -39 -79 -44
-85 -51 -63 -6 23 -7 23 -5 2 1 -12 7 -24 12 -25 10 -1 94 158 95 181 0 19
-34 14 -53 -8 -9 -11 -22 -20 -28 -20 -6 0 -8 8 -4 20 7 24 0 27 -9 4z"/>
<path d="M5678 1114 c-46 -24 -47 -94 -2 -94 31 0 -5 -57 -39 -62 -23 -3 -31
-30 -9 -34 7 -1 8 0 2 3 -18 9 -11 20 18 26 19 4 33 17 45 42 22 45 22 44 -10
42 -43 -3 -39 40 6 70 38 26 31 30 -11 7z"/>
<path d="M5743 1106 c11 -24 12 -25 21 -6 5 11 13 20 19 20 10 0 8 -9 -16 -74
-12 -33 -16 -36 -24 -21 -9 15 -11 14 -17 -10 -10 -38 -36 -76 -60 -85 -17 -7
-17 -9 -4 -9 18 -1 68 57 68 79 0 7 7 10 15 6 10 -3 18 1 21 12 3 9 12 31 21
49 15 32 12 63 -6 63 -5 0 -13 -5 -16 -10 -5 -8 -11 -7 -20 0 -12 10 -12 7 -2
-14z"/>
<path d="M5685 1080 c-10 -11 -16 -23 -12 -26 9 -9 47 16 47 31 0 21 -14 19
-35 -5z m25 1 c0 -5 -7 -12 -16 -15 -14 -5 -15 -4 -4 9 14 17 20 19 20 6z"/>
<path d="M5874 1090 c-23 -9 -54 -47 -54 -65 1 -5 7 2 15 16 18 33 71 57 88
40 15 -15 -2 -45 -29 -49 -33 -6 -40 -22 -10 -22 15 0 25 -4 21 -10 -9 -14
-48 -12 -65 3 -12 10 -12 9 -1 -5 22 -30 90 -18 79 13 -3 8 2 22 10 32 30 33
-8 66 -54 47z"/>
<path d="M7540 1085 c-10 -12 -10 -15 4 -15 9 0 16 7 16 15 0 8 -2 15 -4 15
-2 0 -9 -7 -16 -15z"/>
<path d="M8195 1078 c-52 -14 -96 -18 -172 -16 l-102 3 6 -30 c3 -16 7 -32 9
-34 2 -2 50 -4 106 -4 96 0 177 14 252 43 l29 11 -23 24 c-13 14 -26 24 -29
24 -3 -1 -37 -10 -76 -21z"/>
<path d="M8480 1051 c0 -40 -1 -41 -33 -41 -17 0 -48 4 -66 10 -19 5 -36 8
-39 6 -10 -11 49 -35 101 -41 l57 -7 0 50 c0 28 -4 54 -10 57 -6 4 -10 -10
-10 -34z"/>
<path d="M5960 1055 c-28 -75 -17 -105 24 -66 31 29 42 26 50 -10 5 -25 9 -29
26 -24 11 4 20 2 20 -4 0 -6 8 -11 18 -11 16 1 16 1 0 11 -25 14 -22 55 4 73
26 19 64 21 74 4 9 -14 -31 -48 -57 -48 -10 0 -19 -4 -19 -10 0 -5 12 -10 28
-10 21 0 24 -2 12 -10 -8 -5 -10 -10 -5 -10 6 0 17 5 25 11 12 8 12 12 2 16
-10 4 -8 11 9 29 18 19 20 26 9 39 -18 21 -48 19 -87 -7 -22 -16 -33 -31 -33
-47 0 -28 -16 -18 -22 14 -5 28 -33 30 -57 4 -28 -30 -35 -20 -20 30 12 40 29
55 29 26 0 -9 9 -15 23 -15 13 0 29 -6 37 -12 12 -11 12 -10 1 5 -7 9 -21 17
-31 17 -10 0 -20 7 -24 15 -8 23 -25 18 -36 -10z"/>
<path d="M6360 1072 c0 -6 -14 -12 -32 -14 -17 -2 -33 -9 -36 -17 -3 -10 5
-12 39 -7 48 8 43 -1 -21 -36 -21 -12 -29 -22 -23 -30 6 -10 8 -9 11 3 2 9 21
24 42 34 35 16 39 21 33 44 -7 29 -13 40 -13 23z m-33 -28 c-3 -3 -12 -4 -19
-1 -8 3 -5 6 6 6 11 1 17 -2 13 -5z"/>
<path d="M5546 1035 c-22 -52 -19 -58 5 -12 11 22 18 41 15 44 -3 3 -12 -12
-20 -32z"/>
<path d="M5885 1060 c-3 -5 -2 -10 4 -10 5 0 13 5 16 10 3 6 2 10 -4 10 -5 0
-13 -4 -16 -10z"/>
<path d="M6506 1061 c-11 -17 -25 -61 -20 -61 3 0 10 14 15 30 6 17 17 30 25
30 19 0 18 -3 -11 -58 -14 -26 -25 -54 -25 -62 0 -8 14 14 30 48 17 35 28 68
24 73 -7 11 -31 12 -38 0z"/>
<path d="M6125 1010 c-3 -6 1 -7 9 -4 18 7 21 14 7 14 -6 0 -13 -4 -16 -10z"/>
<path d="M6320 979 c-12 -8 -10 -9 8 -4 27 8 30 -11 3 -20 -11 -3 -22 -12 -25
-20 -4 -10 5 -8 24 7 29 21 34 38 14 45 -5 1 -16 -2 -24 -8z"/>
<path d="M6464 966 c-9 -37 0 -89 16 -93 12 -4 13 -3 1 5 -10 7 -12 24 -9 61
5 54 2 66 -8 27z"/>
<path d="M6267 949 c7 -7 15 -10 18 -7 3 3 -2 9 -12 12 -14 6 -15 5 -6 -5z"/>
<path d="M6581 920 c-17 -17 -31 -38 -31 -45 0 -22 31 -34 57 -22 18 8 27 6
43 -8 29 -26 77 -28 110 -5 l28 20 5 -30 c8 -36 39 -37 80 -3 36 29 47 29 47
-2 0 -36 43 -62 80 -48 25 9 29 8 33 -9 7 -23 31 -19 33 6 2 12 1 13 -3 1 -7
-24 -23 -17 -23 10 0 24 0 24 -29 7 -38 -22 -81 -5 -81 32 0 14 -4 28 -10 31
-12 7 -51 -13 -67 -34 -6 -9 -15 -13 -19 -9 -9 10 25 100 36 93 5 -3 7 -12 3
-21 -4 -12 0 -14 20 -9 19 5 30 1 43 -13 16 -20 17 -20 50 0 18 11 43 18 54
16 16 -2 25 5 36 31 12 30 12 32 -1 21 -8 -7 -15 -19 -15 -26 0 -8 -10 -14
-22 -14 -13 0 -38 -9 -55 -20 -18 -11 -33 -15 -33 -9 0 5 -15 16 -34 24 -19 8
-36 20 -38 27 -6 17 -38 -8 -39 -31 -1 -9 -4 -5 -8 9 -10 35 -38 37 -73 3
l-30 -28 6 25 c6 25 6 25 -6 2 -17 -34 -3 -38 32 -8 48 40 60 35 60 -25 0 -31
-4 -48 -10 -44 -5 3 -10 20 -10 37 l0 30 -36 -27 c-30 -23 -40 -26 -55 -17
-12 8 -19 8 -21 1 -2 -6 -15 -1 -29 10 -20 15 -35 19 -63 14 -46 -7 -49 14 -5
51 37 32 69 34 69 6 0 -16 -5 -19 -23 -15 -15 4 -28 1 -36 -9 -15 -18 -8 -20
18 -6 14 7 23 5 36 -10 20 -22 35 -26 35 -10 0 5 -6 9 -12 8 -9 -2 -13 9 -13
32 0 30 -4 35 -26 38 -19 2 -36 -6 -58 -28z"/>
<path d="M7101 924 c0 -12 -8 -38 -16 -57 -8 -20 -15 -44 -15 -54 1 -10 10 8
21 41 11 32 18 66 16 75 -3 11 -5 10 -6 -5z"/>
<path d="M6263 914 c-8 -22 13 -42 30 -25 10 10 8 11 -7 5 -16 -6 -18 -4 -14
14 7 25 0 30 -9 6z"/>
<path d="M6696 915 c-9 -26 -7 -32 5 -12 6 10 9 21 6 23 -2 3 -7 -2 -11 -11z"/>
<path d="M6496 885 c4 -8 8 -15 10 -15 2 0 4 7 4 15 0 8 -4 15 -10 15 -5 0 -7
-7 -4 -15z"/>
<path d="M7110 834 c-34 -79 -18 -105 33 -56 34 31 87 51 87 32 0 -6 -4 -19
-10 -29 -11 -21 12 -61 36 -61 18 0 18 1 -7 -54 -11 -25 -17 -51 -14 -56 14
-23 37 -7 56 38 11 26 34 68 50 94 17 26 28 52 24 58 -10 16 -34 12 -57 -10
-30 -28 -41 -25 -33 10 5 23 3 32 -10 36 -9 4 -20 1 -25 -5 -5 -10 -9 -9 -13
3 -4 10 -18 16 -37 16 -16 0 -30 4 -30 9 0 5 -7 12 -15 15 -12 4 -21 -7 -35
-40z m40 16 c0 -5 16 -10 36 -10 21 0 33 -4 29 -10 -3 -5 -15 -10 -25 -10 -11
0 -35 -14 -55 -31 -39 -35 -45 -25 -20 35 14 33 35 49 35 26z m114 -59 c-6
-37 -5 -39 14 -34 11 3 28 14 38 24 15 16 44 26 44 15 0 -2 -16 -30 -35 -62
-19 -32 -41 -73 -47 -91 -7 -18 -18 -33 -26 -33 -15 0 -10 24 19 82 24 47 24
46 -5 41 -34 -7 -47 22 -30 65 20 45 36 41 28 -7z"/>
<path d="M6987 832 c-36 -39 -3 -45 40 -7 l28 24 -26 1 c-14 0 -33 -8 -42 -18z
m29 -7 c-26 -19 -42 -19 -26 0 7 8 20 15 29 15 13 -1 13 -3 -3 -15z"/>
<path d="M7466 795 c-20 -20 -20 -29 -1 -49 21 -20 19 -26 -10 -26 -31 0 -32
-16 -2 -30 21 -11 21 -10 3 4 -19 16 -19 16 5 16 37 0 42 10 18 36 -18 19 -20
26 -9 39 14 17 90 21 90 5 0 -5 -13 -10 -28 -10 -40 0 -46 -10 -20 -37 23 -24
18 -37 -17 -46 -16 -5 -15 -5 4 -4 13 1 29 10 35 20 9 15 6 21 -14 37 l-25 20
38 0 c31 0 38 3 35 18 -4 24 -79 29 -102 7z"/>
<path d="M7601 744 c-35 -29 -39 -54 -13 -77 32 -29 124 -15 95 14 -9 9 -7 16
9 29 15 12 19 22 14 38 -10 32 -65 30 -105 -4z m94 5 c11 -17 -26 -49 -57 -49
-15 0 -28 -4 -28 -10 0 -5 16 -10 36 -10 21 0 33 -4 29 -10 -9 -14 -68 -13
-83 2 -18 18 -15 36 13 63 25 26 78 34 90 14z"/>
<path d="M7635 730 c-3 -5 1 -10 9 -10 8 0 18 5 21 10 3 6 -1 10 -9 10 -8 0
-18 -4 -21 -10z"/>
<path d="M8066 761 c-10 -16 5 -41 26 -41 14 0 19 6 16 22 -3 24 -32 36 -42
19z m34 -17 c0 -9 -5 -14 -12 -12 -18 6 -21 28 -4 28 9 0 16 -7 16 -16z"/>
<path d="M7730 714 c-11 -25 -20 -52 -20 -60 0 -23 30 -16 67 16 18 17 43 30
53 30 17 0 20 -7 20 -39 0 -50 20 -68 59 -52 37 16 105 86 97 100 -11 17 -31
13 -52 -10 -10 -11 -27 -25 -38 -31 -17 -9 -18 -7 -14 21 3 18 -1 36 -7 41
-13 11 -45 3 -45 -10 0 -4 -14 -10 -30 -14 -17 -3 -41 -17 -54 -31 -13 -14
-28 -25 -35 -25 -14 0 -14 -3 5 53 15 45 34 63 34 32 0 -11 8 -13 33 -8 43 8
47 13 9 13 -18 0 -32 5 -32 10 0 6 -7 10 -15 10 -9 0 -24 -20 -35 -46z m161
-32 c-1 -23 0 -42 3 -42 3 0 24 16 46 37 29 25 44 33 51 26 14 -14 -86 -95
-110 -91 -19 4 -25 37 -16 85 9 49 30 37 26 -15z"/>
<path d="M8009 665 c-21 -48 -22 -76 -2 -82 14 -5 66 95 59 114 -11 27 -38 12
-57 -32z m51 29 c0 -3 -10 -28 -22 -55 -35 -76 -54 -59 -22 21 9 22 22 40 30
40 8 0 14 -3 14 -6z"/>
<path d="M8140 638 c-70 -48 -62 -88 15 -88 52 0 75 8 75 25 0 19 -12 24 -35
14 -18 -9 -18 -9 3 -5 25 5 30 -9 6 -18 -24 -9 -92 -7 -98 3 -17 27 49 81 98
81 37 0 32 -17 -8 -24 -18 -4 -41 -15 -50 -25 -15 -16 -15 -19 -1 -24 9 -4 15
-1 15 8 0 17 30 35 59 35 14 0 21 6 21 20 0 28 -57 27 -100 -2z"/>
<path d="M8294 634 c-59 -29 -65 -96 -10 -110 42 -10 71 -1 71 22 1 12 8 29
18 38 22 23 22 43 -2 56 -26 13 -40 12 -77 -6z m70 0 c39 -15 -5 -64 -57 -64
-16 0 -26 -4 -22 -10 3 -5 20 -10 36 -10 18 0 28 -4 24 -10 -14 -23 -95 -1
-95 26 0 16 24 46 48 58 30 17 43 19 66 10z"/>
<path d="M8328 612 c-10 -2 -18 -8 -18 -13 0 -11 11 -11 30 1 18 11 11 18 -12
12z"/>
</g>
</svg>
